<svg width="70" height="62" viewBox="0 0 70 62" fill="none" xmlns="http://www.w3.org/2000/svg">
<path d="M37.9944 0.154927C44.9071 0.1924 52.5705 -1.10017 57.9975 3.1816C63.4611 7.49221 63.7876 15.3424 65.7186 22.0284C67.7332 29.0039 71.3476 35.925 69.4806 42.9414C67.5069 50.3584 62.5484 57.5157 55.4797 60.506C48.6994 63.3744 41.2903 59.4502 34.0904 57.9131C28.0738 56.6285 22.31 55.3719 16.9866 52.2878C10.6224 48.6007 2.57796 45.5058 0.497582 38.451C-1.59031 31.3707 3.35147 24.311 6.81416 17.7918C9.92461 11.9358 13.5708 6.23665 19.3423 2.97205C24.9526 -0.201361 31.5489 0.119986 37.9944 0.154927Z" fill="#FFA07D"/>
</svg>
