<svg width="186" height="164" viewBox="0 0 186 164" fill="none" xmlns="http://www.w3.org/2000/svg">
<path d="M100.751 0.410827C119.082 0.510195 139.403 -2.91736 153.794 8.43677C168.282 19.8674 169.148 40.684 174.269 58.4137C179.611 76.9108 189.195 95.2638 184.244 113.869C179.011 133.537 165.862 152.517 147.118 160.446C129.138 168.053 109.491 157.647 90.399 153.57C74.4444 150.164 59.1604 146.832 45.0441 138.654C28.1678 128.876 6.83608 120.67 1.31946 101.962C-4.2171 83.1869 8.88723 64.4664 18.0694 47.1792C26.3175 31.6506 35.9864 16.538 51.2909 7.8811C66.1679 -0.533957 83.6595 0.318173 100.751 0.410827Z" fill="#FFA07D"/>
</svg>
